<svg width="126" height="43" viewBox="0 0 126 43" fill="none" xmlns="http://www.w3.org/2000/svg">
<path d="M125.5 21.5C125.5 24.2547 123.865 26.9544 120.735 29.4796C117.61 32.0014 113.057 34.2944 107.386 36.2296C96.0501 40.0983 80.3572 42.5 63 42.5C45.6428 42.5 29.9499 40.0983 18.6138 36.2296C12.9432 34.2944 8.39019 32.0014 5.26482 29.4796C2.13507 26.9544 0.5 24.2547 0.5 21.5C0.5 18.7453 2.13507 16.0456 5.26482 13.5204C8.39019 10.9987 12.9432 8.70559 18.6138 6.77041C29.9499 2.90173 45.6428 0.5 63 0.5C80.3572 0.5 96.0501 2.90173 107.386 6.77041C113.057 8.70559 117.61 10.9987 120.735 13.5204C123.865 16.0456 125.5 18.7453 125.5 21.5Z" stroke="url(#paint0_linear_23_807)"/>
<defs>
<linearGradient id="paint0_linear_23_807" x1="38" y1="3.67032e-06" x2="99.4423" y2="-15.4931" gradientUnits="userSpaceOnUse">
<stop stop-color="#1C508C"/>
<stop offset="0.849199" stop-color="#0C2039"/>
</linearGradient>
</defs>
</svg>
