<svg width="32" height="32" viewBox="0 0 32 32" fill="none" xmlns="http://www.w3.org/2000/svg">
<path d="M29.5385 12.3077V25.8461C29.5385 26.1726 29.4088 26.4856 29.178 26.7164C28.9472 26.9473 28.6341 27.0769 28.3077 27.0769C27.9813 27.0769 27.6682 26.9473 27.4374 26.7164C27.2066 26.4856 27.0769 26.1726 27.0769 25.8461V20.9231C27.0769 19.9438 26.6879 19.0047 25.9955 18.3122C25.303 17.6198 24.3639 17.2308 23.3846 17.2308H19.6923V2.46154C19.6923 1.8087 19.433 1.1826 18.9713 0.720968C18.5097 0.25934 17.8836 0 17.2308 0H2.46154C1.8087 0 1.1826 0.25934 0.720968 0.720968C0.25934 1.1826 0 1.8087 0 2.46154V29.5385C0 30.1913 0.25934 30.8174 0.720968 31.279C1.1826 31.7407 1.8087 32 2.46154 32H17.2308C17.8836 32 18.5097 31.7407 18.9713 31.279C19.433 30.8174 19.6923 30.1913 19.6923 29.5385V19.6923H23.3846C23.711 19.6923 24.0241 19.822 24.2549 20.0528C24.4857 20.2836 24.6154 20.5967 24.6154 20.9231V25.8461C24.6154 26.8254 25.0044 27.7646 25.6968 28.457C26.3893 29.1494 27.3284 29.5385 28.3077 29.5385C29.287 29.5385 30.2261 29.1494 30.9185 28.457C31.611 27.7646 32 26.8254 32 25.8461V9.84615C32 9.19331 31.7407 8.56721 31.279 8.10558C30.8174 7.64395 30.1913 7.38461 29.5385 7.38461V3.66769C29.532 3.34556 29.3995 3.03879 29.1694 2.81328C28.9393 2.58776 28.6299 2.46147 28.3077 2.46154C28.1363 2.46437 27.9673 2.50227 27.8111 2.57292C27.6549 2.64356 27.5148 2.74544 27.3995 2.87229C27.2842 2.99913 27.1961 3.14825 27.1406 3.31045C27.0851 3.47265 27.0635 3.64449 27.0769 3.81538V9.84615C27.0769 10.333 27.2213 10.8089 27.4918 11.2137C27.7622 11.6185 28.1467 11.934 28.5965 12.1203C29.0463 12.3066 29.5412 12.3554 30.0187 12.2604C30.4962 12.1654 30.9348 11.931 31.279 11.5867C31.6233 11.2425 31.8577 10.8039 31.9527 10.3264C32.0477 9.84888 31.9989 9.35395 31.8126 8.90416C31.6263 8.45438 31.3108 8.06994 30.906 7.79946C30.5012 7.52898 30.0253 7.38461 29.5385 7.38461V12.3077ZM17.2308 13.5385C17.2308 13.8649 17.1011 14.1779 16.8703 14.4087C16.6395 14.6396 16.3264 14.7692 16 14.7692H3.69231C3.36589 14.7692 3.05284 14.6396 2.82202 14.4087C2.59121 14.1779 2.46154 13.8649 2.46154 13.5385V6.15385C2.46154 5.82743 2.59121 5.51437 2.82202 5.28356C3.05284 5.05275 3.36589 4.92308 3.69231 4.92308H16C16.3264 4.92308 16.6395 5.05275 16.8703 5.28356C17.1011 5.51437 17.2308 5.82743 17.2308 6.15385V13.5385Z" fill="#BB7204"/>
</svg>
