<svg width="20" height="20" viewBox="0 0 20 20" fill="none" xmlns="http://www.w3.org/2000/svg">
<path d="M2.08691 3.24549L3.64457 4.79889C7.09368 1.35922 12.768 1.35922 16.2171 4.79889L17.7748 3.24549C13.5468 -1.08183 6.42611 -1.08183 2.08691 3.24549ZM5.31349 6.46325L6.87115 8.01664C8.65133 6.24133 11.4329 6.24133 13.2131 8.01664L14.7707 6.46325C12.1004 3.80028 7.87251 3.80028 5.31349 6.46325ZM9.76395 13.3426C8.87386 10.7906 5.98106 9.34813 3.42205 10.3467C0.863035 11.3454 -0.694625 14.1193 0.306728 16.6713C1.30808 19.2233 4.08962 20.6657 6.64863 19.6671C8.09503 19.1123 9.20764 18.0028 9.65269 16.6713H13.3243V20H16.6622V16.6713H20V13.3426M4.97971 16.6713C4.08962 16.6713 3.31079 15.8946 3.31079 15.0069C3.31079 14.1193 4.08962 13.3426 4.97971 13.3426C5.8698 13.3426 6.64863 14.1193 6.64863 15.0069C6.64863 15.8946 5.8698 16.6713 4.97971 16.6713Z" fill="white"/>
</svg>
