<svg width="34" height="46" viewBox="0 0 34 46" fill="none" xmlns="http://www.w3.org/2000/svg">
<path d="M4.25 46C3.08125 46 2.08108 45.5714 1.2495 44.7142C0.417916 43.857 0.00141667 42.8253 0 41.619V19.7143C0 18.5095 0.4165 17.4785 1.2495 16.6213C2.0825 15.7641 3.08267 15.3348 4.25 15.3333H6.375V10.9524C6.375 7.92222 7.41129 5.33965 9.48387 3.20467C11.5565 1.06968 14.0618 0.00146181 17 1.49521e-06C19.9382 -0.00145882 22.4442 1.06676 24.5182 3.20467C26.5922 5.34257 27.6278 7.92514 27.625 10.9524V15.3333H29.75C30.9187 15.3333 31.9196 15.7627 32.7526 16.6213C33.5856 17.48 34.0014 18.511 34 19.7143V41.619C34 42.8238 33.5842 43.8555 32.7526 44.7142C31.921 45.5729 30.9202 46.0015 29.75 46H4.25ZM17 35.0476C18.1687 35.0476 19.1696 34.619 20.0026 33.7618C20.8356 32.9046 21.2514 31.8729 21.25 30.6667C21.2486 29.4604 20.8328 28.4295 20.0026 27.5737C19.1725 26.718 18.1716 26.2886 17 26.2857C15.8284 26.2828 14.8282 26.7121 13.9995 27.5737C13.1707 28.4353 12.7542 29.4663 12.75 30.6667C12.7457 31.867 13.1622 32.8988 13.9995 33.7618C14.8367 34.6249 15.8369 35.0535 17 35.0476ZM10.625 15.3333H23.375V10.9524C23.375 9.12698 22.7552 7.5754 21.5156 6.29762C20.276 5.01984 18.7708 4.38095 17 4.38095C15.2292 4.38095 13.724 5.01984 12.4844 6.29762C11.2448 7.5754 10.625 9.12698 10.625 10.9524V15.3333Z" fill="#2196F3"/>
</svg>
