<svg width="34" height="46" viewBox="0 0 34 46" fill="none" xmlns="http://www.w3.org/2000/svg">
<path d="M13.5914 32.6502C13.5914 31.7037 13.9505 30.7958 14.5897 30.1265C15.2289 29.4571 16.0958 29.0811 16.9998 29.0811C17.9037 29.0811 18.7707 29.4571 19.4099 30.1265C20.0491 30.7958 20.4082 31.7037 20.4082 32.6502C20.4082 33.5968 20.0491 34.5047 19.4099 35.174C18.7707 35.8433 17.9037 36.2194 16.9998 36.2194C16.0958 36.2194 15.2289 35.8433 14.5897 35.174C13.9505 34.5047 13.5914 33.5968 13.5914 32.6502Z" fill="#2196F3"/>
<path fill-rule="evenodd" clip-rule="evenodd" d="M12.0238 4.1091C12.9145 3.73778 13.8665 3.55456 14.8251 3.57C15.7836 3.58543 16.7298 3.79922 17.6092 4.19905C18.4885 4.59888 19.2837 5.17686 19.949 5.89973C20.6142 6.6226 21.1364 7.47609 21.4854 8.4111L21.6558 8.86794C21.8671 9.43425 22.0194 10.0243 22.1057 10.624L22.5988 14.0099L25.9685 13.4721L25.4755 10.0862C25.3503 9.22559 25.1347 8.38211 24.8324 7.57116L24.662 7.11193C23.7053 4.54893 21.8798 2.44529 19.5347 1.20347C17.1896 -0.0383518 14.4896 -0.331153 11.9512 0.381083C9.41288 1.09332 7.21442 2.76058 5.77646 5.06389C4.3385 7.3672 3.762 10.1448 4.15727 12.8654L4.22543 13.3508C4.35268 14.2121 4.56854 15.0568 4.87075 15.8682L6.35907 19.8537L5.49107 19.9251C4.29571 20.0251 3.16681 20.5416 2.28459 21.3921C1.40236 22.2426 0.817696 23.3781 0.623927 24.6173C-0.207976 29.9372 -0.207976 35.3633 0.623927 40.6832C0.817696 41.9224 1.40236 43.0579 2.28459 43.9084C3.16681 44.7589 4.29571 45.2754 5.49107 45.3754L8.89035 45.6609C14.2892 46.113 19.7108 46.113 25.1096 45.6609L28.5089 45.3754C29.7043 45.2754 30.8332 44.7589 31.7154 43.9084C32.5976 43.0579 33.1823 41.9224 33.376 40.6832C34.208 35.3633 34.208 29.9372 33.376 24.6173C33.1823 23.3781 32.5976 22.2426 31.7154 21.3921C30.8332 20.5416 29.7043 20.0251 28.5089 19.9251L25.1096 19.6396C20.0515 19.2171 14.9702 19.1909 9.90831 19.5611L8.04507 14.569C7.83443 14.0028 7.68431 13.4139 7.59744 12.813L7.52473 12.33C7.27728 10.629 7.58733 8.89033 8.40433 7.39745C9.22134 5.90457 10.4971 4.74548 12.0238 4.1091ZM24.8392 23.1992C19.6214 22.7631 14.3786 22.7631 9.16075 23.1992L5.76147 23.4847C5.32565 23.5212 4.91407 23.7096 4.59242 24.0197C4.27076 24.3297 4.05756 24.7437 3.98685 25.1955C3.21493 30.1325 3.21493 35.168 3.98685 40.105C4.0571 40.5572 4.2701 40.9717 4.5918 41.2823C4.91349 41.5929 5.32532 41.7815 5.76147 41.8182L9.16302 42.1037C14.3801 42.5391 19.6199 42.5391 24.837 42.1037L28.2362 41.8182C28.6728 41.782 29.0851 41.5936 29.4073 41.283C29.7294 40.9724 29.9428 40.5576 30.0131 40.105C30.785 35.168 30.785 30.1325 30.0131 25.1955C29.9428 24.7429 29.7294 24.3281 29.4073 24.0175C29.0851 23.7069 28.6728 23.5185 28.2362 23.4823L24.8392 23.1992Z" fill="#2196F3"/>
</svg>
